<svg xmlns="http://www.w3.org/2000/svg" viewBox="0 0 144.07 143.75">
  <g id="レイヤー_2" data-name="レイヤー 2">
    <g id="bg">
      <g>
        <path d="M3,49.58l3,1.09L7.89,45.5l2.07.77L8.05,51.43l4.07,1.5-1,2.59L0,51.4,3.12,43l2.07.77Z" style="fill: #fff"/>
        <path d="M17,40.94a5.83,5.83,0,0,1-3.13.68,6,6,0,0,1-3.08-1.07,6.08,6.08,0,0,1-2.13-2.47,6,6,0,0,1-.52-3.16,7,7,0,0,1,1.22-3.21,6.78,6.78,0,0,1,2.53-2.31,6.07,6.07,0,0,1,8.86,6,6.79,6.79,0,0,1-1.21,3.2A7,7,0,0,1,17,40.94Zm1.27-5.48a3.48,3.48,0,0,0-.37-1.87,4.06,4.06,0,0,0-1.36-1.51,3.91,3.91,0,0,0-1.9-.7,3.44,3.44,0,0,0-1.87.34A3.8,3.8,0,0,0,11.29,33a3.86,3.86,0,0,0-.67,1.85A3.44,3.44,0,0,0,11,36.73a3.92,3.92,0,0,0,1.36,1.51,3.93,3.93,0,0,0,1.9.71,3.52,3.52,0,0,0,1.87-.34,3.76,3.76,0,0,0,1.47-1.31A3.69,3.69,0,0,0,18.26,35.46Z" style="fill: #fff"/>
        <path d="M27.67,27.81a5.86,5.86,0,0,1-3.19-.14,6.42,6.42,0,0,1-4.16-4.78,5.83,5.83,0,0,1,.31-3.17,6.78,6.78,0,0,1,2-2.77,7,7,0,0,1,2.47-1.43,5.66,5.66,0,0,1,2.61-.19l-.26,2.39a3.8,3.8,0,0,0-3.17.91,3.9,3.9,0,0,0-1.17,1.66,3.45,3.45,0,0,0-.14,1.91,4,4,0,0,0,.93,1.8,3.9,3.9,0,0,0,1.66,1.17,3.45,3.45,0,0,0,1.91.14,4,4,0,0,0,1.8-.93,3.81,3.81,0,0,0,1.34-3l2.4.07A5.56,5.56,0,0,1,32.43,24a7.12,7.12,0,0,1-1.76,2.25A7,7,0,0,1,27.67,27.81Z" style="fill: #fff"/>
        <path d="M38.39,18.9A5.42,5.42,0,0,1,35.3,16l-3-5.94,2.46-1.25,3,5.85q1.44,2.85,3.81,1.65a2.49,2.49,0,0,0,1.41-1.58,3.6,3.6,0,0,0-.49-2.47l-3-5.85,2.42-1.23,3,5.94a5.44,5.44,0,0,1,.56,4.24,5.42,5.42,0,0,1-2.9,3A5.39,5.39,0,0,1,38.39,18.9Z" style="fill: #fff"/>
        <path d="M53.36,13.64a6.6,6.6,0,0,1-2.29-.48l.43-2.23a7,7,0,0,0,4.11.29,3.36,3.36,0,0,0,1.6-.74,1,1,0,0,0,.33-1,.87.87,0,0,0-.48-.61,2.54,2.54,0,0,0-.93-.24c-.37,0-.85,0-1.46,0a20.73,20.73,0,0,1-2.31-.11,3.75,3.75,0,0,1-1.69-.66,2.81,2.81,0,0,1-1-1.71,3.27,3.27,0,0,1,.11-2,3.77,3.77,0,0,1,1.33-1.69,7,7,0,0,1,2.58-1.12,8.82,8.82,0,0,1,2.23-.25,6.5,6.5,0,0,1,2,.32l-.34,2.23a6.73,6.73,0,0,0-3.43-.15,3.14,3.14,0,0,0-1.57.76,1.13,1.13,0,0,0-.31,1.09,1,1,0,0,0,.83.74,10.7,10.7,0,0,0,2,.12,18.56,18.56,0,0,1,2.31.11,3.58,3.58,0,0,1,1.69.65,2.74,2.74,0,0,1,1,1.69A3.21,3.21,0,0,1,60,10.56a3.85,3.85,0,0,1-1.36,1.7,7.15,7.15,0,0,1-2.58,1.12A10.19,10.19,0,0,1,53.36,13.64Z" style="fill: #fff"/>
        <path d="M75.58,11a5.91,5.91,0,0,1-2-2.5,6,6,0,0,1-.4-3.24,6,6,0,0,1,1.27-3A5.86,5.86,0,0,1,77.06.41a7.38,7.38,0,0,1,6.61.92,6,6,0,0,1,2.41,5.74,6,6,0,0,1-1.28,3,6.14,6.14,0,0,1-2.61,1.86,6.92,6.92,0,0,1-3.41.33A7,7,0,0,1,75.58,11Zm5.48-1.29a3.49,3.49,0,0,0,1.5-1.16,4,4,0,0,0,.76-1.88,4,4,0,0,0-.21-2A3.48,3.48,0,0,0,82,3.14a4,4,0,0,0-3.77-.52,3.5,3.5,0,0,0-1.51,1.15,4,4,0,0,0-.75,1.89,4,4,0,0,0,.21,2A3.5,3.5,0,0,0,77.28,9.2a3.73,3.73,0,0,0,1.82.74A3.79,3.79,0,0,0,81.06,9.73Z" style="fill: #fff"/>
        <path d="M104.33,7.65l-4.67,11-2.08-.89L95,8.74l-2.84,6.64-2.5-1.06L94.29,3.37l2.09.89,2.62,9,2.83-6.65Z" style="fill: #fff"/>
        <path d="M118.9,20.83l-2.74-2.64,1.56-1.61,7.46,7.19-1.56,1.62-2.74-2.64-6.7,7-2-1.92Z" style="fill: #fff"/>
        <path d="M135.36,38.2l-10,6.4-1.49-2.32L128,39.65l-2.91-4.55-4.11,2.62-1.48-2.32,10-6.4L131,31.32l-4,2.52,2.9,4.56,4-2.52Z" style="fill: #fff"/>
        <path d="M132.54,57.49l-2.1.71-2.94-8.74,11.27-3.8,2.88,8.53-2.1.7-2-5.93-2.44.83L136.87,55l-2,.69-1.76-5.24-2.61.88Z" style="fill: #fff"/>
        <path d="M141.79,73.57l-3.14-.08L138.52,79l-2.21,0,.13-5.51-4.34-.1.07-2.75,11.9.28-.22,9-2.21,0Z" style="fill: #fff"/>
        <path d="M132.2,85.48a5.44,5.44,0,0,1,4.26-.33l6.44,1.71-.71,2.66-6.34-1.68q-3.09-.82-3.77,1.74a2.42,2.42,0,0,0,.24,2.1A3.58,3.58,0,0,0,134.48,93l6.34,1.69-.7,2.63-6.44-1.72a5.63,5.63,0,0,1-1.48-10.08Z" style="fill: #fff"/>
        <path d="M133.87,105.79l1.8-3.35,2,1.06-4.91,9.13-2-1.06,1.81-3.35-8.51-4.57,1.3-2.43Z" style="fill: #fff"/>
        <path d="M120,112.1a5.44,5.44,0,0,1,4,1.63l5,4.44-1.84,2-4.89-4.37q-2.39-2.13-4.15-.15a2.5,2.5,0,0,0-.74,2,3.67,3.67,0,0,0,1.36,2.13l4.89,4.37-1.81,2-5-4.44A5.63,5.63,0,0,1,120,112.1Z" style="fill: #fff"/>
        <path d="M102.56,125.88l3.75,1.47.11-.07,2-1.34-1.85-2.75,2.29-1.54,6.64,9.88-4.28,2.87a6.69,6.69,0,0,1-2.57,1.1,4,4,0,0,1-2.32-.25,4.17,4.17,0,0,1-1.81-1.55,3.89,3.89,0,0,1-.06-4.48l-4.35-1.69Zm5.66,7.18a2.89,2.89,0,0,0,1.87-.61L112,131.2l-2.31-3.44L107.77,129a2.88,2.88,0,0,0-1.26,1.51,1.9,1.9,0,0,0,.32,1.63A1.87,1.87,0,0,0,108.22,133.06Z" style="fill: #fff"/>
        <path d="M88.15,134.76l-.77-2.07L96,129.45l4.17,11.15-8.42,3.15L91,141.68l5.86-2.19-.9-2.42L90.76,139,90,137l5.17-1.94-1-2.58Z" style="fill: #fff"/>
        <path d="M82.41,134.05a1.62,1.62,0,0,1,.68,1.09,1.59,1.59,0,0,1-.26,1.24,1.65,1.65,0,0,1-1.08.65,1.68,1.68,0,0,1-1.23-.23,1.56,1.56,0,0,1-.68-1.08,1.63,1.63,0,0,1,.26-1.26,1.58,1.58,0,0,1,1.07-.67A1.55,1.55,0,0,1,82.41,134.05Z" style="fill: #fff"/>
        <path d="M67.94,138.65a2.69,2.69,0,0,1,.85.41l-.43.75a2.94,2.94,0,0,0-.73-.38,3.2,3.2,0,0,0-.86-.17,1.46,1.46,0,0,0-.72.09.39.39,0,0,0-.25.33.37.37,0,0,0,.12.27,1.2,1.2,0,0,0,.34.18c.15.05.33.11.57.17s.67.2.91.3a1.53,1.53,0,0,1,.59.41,1,1,0,0,1,.21.72,1.06,1.06,0,0,1-.27.68,1.52,1.52,0,0,1-.72.46,3.36,3.36,0,0,1-1.15.12,4.67,4.67,0,0,1-.91-.15,3,3,0,0,1-.76-.34l.39-.75a3.08,3.08,0,0,0,1.34.42,1.42,1.42,0,0,0,.71-.1.42.42,0,0,0,.24-.35.35.35,0,0,0-.24-.35,4.5,4.5,0,0,0-.79-.26,8.82,8.82,0,0,1-.9-.29,1.56,1.56,0,0,1-.59-.42,1,1,0,0,1-.22-.71A1.12,1.12,0,0,1,65,139a1.56,1.56,0,0,1,.73-.46,3.36,3.36,0,0,1,1.15-.12A4.19,4.19,0,0,1,67.94,138.65Z" style="fill: #fff"/>
        <path d="M58.86,138.45l.12-.81,3.75.55-.64,4.36L58.43,142l.12-.81,2.55.38.14-1L59,140.3l.12-.79,2.25.33.15-1Z" style="fill: #fff"/>
        <path d="M53,137.13l.19-.8,3.69.89-1,4.28-3.6-.86.19-.8,2.51.6.22-.93L53,139l.18-.77,2.21.53.24-1Z" style="fill: #fff"/>
        <path d="M49.69,139.91l-2.11-.73a3.35,3.35,0,0,1-1.24-.72,2.18,2.18,0,0,1-.65-1,2.1,2.1,0,0,1,.06-1.21,2,2,0,0,1,.7-1,2.22,2.22,0,0,1,1.15-.42A3.44,3.44,0,0,1,49,135l2.11.73Zm-.89-4.08a1.67,1.67,0,0,0-1.22,0,1.25,1.25,0,0,0-.75.8,1.29,1.29,0,0,0,.09,1.09,1.83,1.83,0,0,0,1,.73l1,.34.89-2.59Z" style="fill: #fff"/>
        <path d="M39.18,130.7l.27,1.52,0,0,.88.46.56-1.09,1,.52-2,3.91-1.89-1a3,3,0,0,1-.91-.69,1.65,1.65,0,0,1-.4-.83,1.46,1.46,0,0,1,.16-.88,1.37,1.37,0,0,1,.63-.63,1.67,1.67,0,0,1,.91-.14l-.32-1.76Zm-1.31,3.13a1.34,1.34,0,0,0,.6.54l.82.42.71-1.36-.82-.43a1.23,1.23,0,0,0-.78-.18.69.69,0,0,0-.5.38A.7.7,0,0,0,37.87,133.83Z" style="fill: #fff"/>
        <path d="M32.73,127.73l.45-.69,3.18,2.06L34,132.81l-3.11-2,.45-.69,2.16,1.4.52-.81-1.91-1.23.43-.67L34.42,130l.55-.85Z" style="fill: #fff"/>
        <path d="M30.59,125.4a2.37,2.37,0,0,1,.25,1.23,2,2,0,0,1-.46,1.14,2.08,2.08,0,0,1-1,.71,2.39,2.39,0,0,1-1.25.05,3.23,3.23,0,0,1-1.25-.61,3.49,3.49,0,0,1-.78-.87,2.45,2.45,0,0,1-.32-1l.95,0a1.62,1.62,0,0,0,.65,1.17,1.75,1.75,0,0,0,.74.36,1.35,1.35,0,0,0,.75,0,1.41,1.41,0,0,0,.61-.45,1.37,1.37,0,0,0,.3-.7,1.49,1.49,0,0,0-.13-.74,1.77,1.77,0,0,0-.53-.64,1.63,1.63,0,0,0-1.29-.35l-.2-.93a2.37,2.37,0,0,1,1.05.08,3.08,3.08,0,0,1,1,.56A3,3,0,0,1,30.59,125.4Z" style="fill: #fff"/>
        <path d="M24.37,119.7l-.17,1.54,0,0L25,122l.85-.88.82.78-3.05,3.19L22,123.58a3.07,3.07,0,0,1-.68-.92,1.69,1.69,0,0,1-.15-.92,1.4,1.4,0,0,1,.4-.79,1.36,1.36,0,0,1,.78-.43,1.64,1.64,0,0,1,.91.12l.19-1.78Zm-2.13,2.64a1.19,1.19,0,0,0,.42.68l.67.64,1.06-1.11-.67-.64a1.25,1.25,0,0,0-.7-.39.74.74,0,0,0-.78.82Z" style="fill: #fff"/>
        <path d="M21.43,117.28a1.89,1.89,0,0,1-.76,1.42l-1.87,1.6-.74-.86,1.85-1.58a1,1,0,0,0,.19-1.6,1.09,1.09,0,0,0-.75-.43,1.21,1.21,0,0,0-.86.37l-1.85,1.58-.73-.85,1.88-1.61a1.89,1.89,0,0,1,1.51-.52,2.36,2.36,0,0,1,1.46.9A2.35,2.35,0,0,1,21.43,117.28Z" style="fill: #fff"/>
        <path d="M14.32,114.81l-.66-.91,3.56-2.6.67.91Z" style="fill: #fff"/>
        <path d="M12.31,110.43l.83,1.32-.7.45-2.28-3.62.71-.44.83,1.33,3-1.91.6,1Z" style="fill: #fff"/>
        <path d="M9.17,106.77l-.54-1,3.89-2.09.54,1Z" style="fill: #fff"/>
        <path d="M5.58,99.28l4-1.78.37.86-1.46,3.31L11,100.59l.45,1-4,1.79L7,102.54l1.47-3.31L6,100.31Z" style="fill: #fff"/>
        <path d="M5.59,92.81l-.32-1L7,91.28a2.75,2.75,0,0,1,.68.75,3.89,3.89,0,0,1,.47,1,3.21,3.21,0,0,1,.14,1.39,2.28,2.28,0,0,1-.48,1.16,2.13,2.13,0,0,1-1,.7,2.15,2.15,0,0,1-1.23,0,2.36,2.36,0,0,1-1.06-.67,3.11,3.11,0,0,1-.71-1.23A3.29,3.29,0,0,1,3.6,93.2a2.26,2.26,0,0,1,.26-1l.8.5a1.83,1.83,0,0,0-.08,1.36,2,2,0,0,0,.42.74,1.51,1.51,0,0,0,.65.39,1.36,1.36,0,0,0,.77,0,1.26,1.26,0,0,0,.63-.42,1.36,1.36,0,0,0,.3-.69,1.85,1.85,0,0,0-.08-.83,2,2,0,0,0-.45-.78Z" style="fill: #fff"/>
        <path d="M6.08,85.67a2.78,2.78,0,0,1-.21.92l-.82-.24a3.12,3.12,0,0,0,.2-.8,3.23,3.23,0,0,0,0-.88A1.64,1.64,0,0,0,5,84a.38.38,0,0,0-.38-.16.29.29,0,0,0-.23.17,1.06,1.06,0,0,0-.11.38c0,.15,0,.34,0,.59s0,.7-.08,1a1.64,1.64,0,0,1-.27.67,1,1,0,0,1-.65.37,1.16,1.16,0,0,1-.73-.11,1.52,1.52,0,0,1-.61-.6,3,3,0,0,1-.37-1.08,3.59,3.59,0,0,1-.06-.92,2.67,2.67,0,0,1,.15-.83l.82.21A3.08,3.08,0,0,0,2.31,85a1.53,1.53,0,0,0,.26.67.42.42,0,0,0,.4.16.36.36,0,0,0,.29-.32,4,4,0,0,0,.07-.82,9.46,9.46,0,0,1,.08-1,1.58,1.58,0,0,1,.27-.67.9.9,0,0,1,.64-.37,1.07,1.07,0,0,1,.72.11,1.62,1.62,0,0,1,.61.61A3.23,3.23,0,0,1,6,84.54,4.31,4.31,0,0,1,6.08,85.67Z" style="fill: #fff"/>
        <path d="M1,81,.86,79.85l4.39-.46.12,1.13Z" style="fill: #fff"/>
        <path d="M1.44,76.18l.06,1.57-.84,0L.51,73.51l.84,0,0,1.57L5,74.92l0,1.14Z" style="fill: #fff"/>
        <path d="M4.33,67.72l.82,0L5,71.55l-4.4-.23.19-3.7.82,0-.13,2.57,1,.05L2.5,68l.79,0-.12,2.27,1,.06Z" style="fill: #fff"/>
      </g>
    </g>
  </g>
</svg>
