<svg width="1735" height="487" viewBox="0 0 1735 487" fill="none" xmlns="http://www.w3.org/2000/svg">
<g clip-path="url(#clip0_14_779)">
<path d="M106.601 300.58C70.9783 285.38 37.3149 271.026 37.3149 235.766C37.3149 202.735 67.1934 189.05 83.2236 189.05C118.846 189.05 142.535 200.506 167.248 229.971L167.783 230.64L168.317 229.926C176.927 218.009 182.991 204.443 186.128 190.075V189.584L185.683 189.361C163.419 177.727 137.993 172.11 107.402 172.11C51.3858 172.11 7.48093 208.217 7.48093 254.31C7.48093 305.885 48.1352 323.047 87.6318 339.674L88.656 340.075C125.882 355.811 164.354 372.081 164.354 420.313C164.354 437.876 151.53 449.11 140.799 455.44C126.171 463.638 109.695 467.964 92.9307 468.01C59.9353 468.01 39.096 456.376 13.3141 423.434L12.6907 422.631L12.2009 423.523C4.54622 437.841 0.40964 453.779 0.133789 470.016V470.417H0.490023C13.5368 478.129 42.5692 486.108 68.5737 486.108C142.535 486.108 194.188 448.174 194.188 393.879C194.188 337.713 149.66 318.723 106.735 300.268" fill="#3E3E3E"/>
<path d="M367.893 486.331C349.969 485.949 332.631 479.876 318.377 468.991C297.449 452.675 286.718 429.406 286.718 386.88C288.143 380.907 329.999 346.761 448.623 322.333L453.922 320.773V288.232C453.922 237.192 425.646 206.701 378.223 206.701C359.286 206.44 340.583 210.914 323.81 219.718C332.716 201.887 357.785 180.758 409.527 180.758C451.205 180.758 493.285 206.88 493.285 265.453V422.854C493.285 443.716 496.758 455.974 505.441 464.622L466.122 482.453C461.091 477.995 455.035 469.08 453.832 444.652L453.61 436.806L454.011 436.405V348.99H446.485C405.786 349.748 358.631 360.09 331.825 374.22L327.773 376.36V380.818C328.663 431.591 353.288 461.947 393.63 461.947C407.191 461.699 420.499 458.231 432.459 451.828C419.768 467.787 398.573 486.108 367.893 486.108" fill="#3E3E3E"/>
<path d="M1376.77 486.331C1333.31 486.331 1304.14 455.974 1304.14 410.862V204.205H1257.75C1273.96 191.773 1289.27 178.202 1303.57 163.596C1319.06 146.211 1343.64 107.073 1343.64 107.073V175.587L1349.83 176.612C1376.69 181.483 1403.81 184.816 1431.05 186.597C1405.05 195.894 1377.93 201.666 1350.41 203.759L1343.64 204.205V394.146C1343.64 456.955 1383.18 466.316 1406.69 466.316C1416.82 466.429 1426.92 465.336 1436.79 463.062C1428.89 470.801 1419.5 476.854 1409.19 480.854C1398.88 484.853 1387.86 486.716 1376.81 486.331" fill="#3E3E3E"/>
<path d="M1033.19 486.331C1015.28 485.939 997.959 479.868 983.719 468.991C962.79 452.675 952.059 429.406 952.059 386.88C953.484 380.907 995.341 346.761 1113.96 322.333L1119.26 320.773V288.232C1119.26 237.192 1090.99 206.701 1043.56 206.701C1024.63 206.44 1005.92 210.914 989.151 219.718C998.057 201.887 1023.08 180.758 1074.87 180.758C1116.55 180.758 1158.58 206.88 1158.58 265.453V422.854C1158.58 443.716 1162.1 455.974 1170.78 464.622L1131.42 482.453C1126.43 477.995 1120.38 469.08 1119.13 444.652L1118.73 436.762L1119.17 436.36V348.99H1111.6C1070.91 349.748 1023.79 360.09 996.988 374.22L992.936 376.36V380.818C993.827 431.591 1018.45 461.947 1058.79 461.947C1072.34 461.704 1085.63 458.235 1097.58 451.828C1084.93 467.787 1063.69 486.108 1033.01 486.108" fill="#3E3E3E"/>
<path d="M1597.32 486.331C1579.4 485.949 1562.06 479.876 1547.8 468.991C1526.88 452.675 1516.14 429.406 1516.14 386.88C1517.57 380.907 1559.43 346.761 1678.05 322.333L1683.35 320.773V288.232C1683.35 237.192 1655.07 206.701 1607.65 206.701C1588.79 206.478 1570.17 210.95 1553.46 219.718C1562.36 201.887 1587.43 180.758 1639.18 180.758C1680.85 180.758 1722.93 206.88 1722.93 265.453V422.854C1722.93 443.716 1726.41 455.974 1735.09 464.622L1695.73 482.453C1690.74 477.995 1684.68 469.08 1683.44 444.652L1683.08 436.762L1683.48 436.36V348.99H1675.91C1635.26 349.748 1588.1 360.09 1561.3 374.22L1557.24 376.36V380.818C1558.13 431.591 1582.76 461.947 1623.1 461.947C1636.65 461.704 1649.94 458.235 1661.88 451.828C1649.24 467.787 1628.04 486.108 1597.36 486.108" fill="#3E3E3E"/>
<path d="M845.993 486.999C822.882 486.999 812.597 479.689 795.275 459.005L692.459 327.147C692.459 327.147 792.87 235.944 792.87 206.79C793.044 200.991 791.997 195.22 789.798 189.851H853.34C841.941 199.881 831.565 210.134 821.458 220.074C814.956 226.538 808.099 233.18 801.242 239.688L726.612 309.941L833.97 441.264C852.316 464.934 865.14 474.919 879.211 481.383C868.528 485.086 857.297 486.955 845.993 486.91" fill="#3E3E3E"/>
<path d="M617.563 477.951C624.752 466.91 628.546 453.998 628.472 440.819V63.2545C628.472 42.7046 622.416 26.7461 610.884 16.6718L667.924 -0.0444336V440.819C667.633 453.99 671.344 466.938 678.566 477.951H617.563Z" fill="#3E3E3E"/>
</g>
<defs>
<clipPath id="clip0_14_779">
<rect width="1735" height="487" fill="white"/>
</clipPath>
</defs>
</svg>
